<?xml version="1.0" encoding="UTF-8"?>
<svg xmlns="http://www.w3.org/2000/svg" xmlns:xlink="http://www.w3.org/1999/xlink" width="100px" height="100px" viewBox="0 0 100 100" version="1.1">
<g id="surface1">
<path style=" stroke:none;fill-rule:nonzero;fill:rgb(0%,0%,0%);fill-opacity:1;" d="M 100 77.449219 C 96.988281 78.589844 93.601562 77.300781 92.105469 74.449219 L 77.730469 54.570312 L 75.644531 51.792969 L 58.964844 74.476562 C 57.5625 77.207031 54.347656 78.46875 51.457031 77.425781 L 72.949219 48.589844 L 52.957031 22.546875 C 55.921875 21.476562 59.226562 22.636719 60.875 25.320312 L 75.773438 45.445312 L 90.757812 25.402344 C 92.175781 22.71875 95.378906 21.523438 98.207031 22.621094 L 90.449219 32.917969 L 79.941406 46.597656 C 79.351562 47.121094 79.015625 47.875 79.015625 48.667969 C 79.015625 49.457031 79.351562 50.210938 79.941406 50.738281 L 99.957031 77.453125 Z M 0.0078125 48.234375 L 1.757812 39.585938 C 6.566406 22.492188 26.167969 15.378906 39.648438 25.960938 C 47.546875 32.167969 49.515625 40.949219 49.128906 50.851562 L 4.648438 50.851562 C 3.929688 68.527344 16.6875 79.203125 33 73.75 C 38.371094 71.816406 42.414062 67.316406 43.757812 61.765625 C 44.621094 58.992188 46.042969 58.515625 48.648438 59.316406 C 47.769531 66.175781 43.792969 72.25 37.863281 75.804688 C 27.941406 81.230469 15.660156 79.660156 7.421875 71.917969 C 3.449219 67.449219 1.050781 61.800781 0.585938 55.839844 C 0.585938 54.863281 0.253906 53.945312 0.0273438 53.066406 C 0.0078125 51.457031 0 49.847656 0 48.238281 Z M 4.703125 47.042969 L 44.929688 47.042969 C 44.679688 34.226562 36.589844 25.132812 25.804688 25.050781 C 13.796875 24.882812 5.203125 33.773438 4.675781 46.984375 Z M 4.703125 47.042969 "/>
</g>
</svg>
